<?xml version="1.0" encoding="UTF-8"?>
<svg xmlns="http://www.w3.org/2000/svg" xmlns:xlink="http://www.w3.org/1999/xlink" width="1921" height="1828" viewBox="0 0 1921 1828">
<path fill-rule="evenodd" fill="rgb(255, 255, 255)" fill-opacity="1" d="M 817.0625 716.179688 L 905.871094 745.039062 L 960.761719 669.488281 L 1015.648438 745.039062 L 1104.460938 716.179688 L 1104.460938 809.558594 L 1193.269531 838.417969 L 1138.378906 913.96875 L 1193.269531 989.511719 L 1104.460938 1018.371094 L 1104.460938 1111.753906 L 1015.648438 1082.894531 L 960.761719 1158.441406 L 905.871094 1082.894531 L 817.0625 1111.753906 L 817.0625 1018.371094 L 728.25 989.511719 L 783.136719 913.96875 L 728.25 838.417969 L 817.0625 809.558594 Z M 960.761719 1267.628906 L 1104.460938 1465.414062 L 1104.460938 1616.507812 L 960.761719 1663.199219 L 817.0625 1616.507812 L 817.0625 1465.414062 Z M 1064.601562 1696.9375 L 1168.640625 1663.132812 L 1168.640625 1553.746094 L 1232.929688 1642.242188 L 1336.96875 1608.441406 L 1232.929688 1751.632812 Z M 960.761719 1730.679688 L 1257.449219 1827.082031 L 1440.808594 1574.699219 L 1737.5 1478.300781 L 1737.5 1166.34375 L 1920.859375 913.96875 L 1737.5 661.589844 L 1737.5 349.628906 L 1440.808594 253.230469 L 1257.449219 0.851562 L 960.761719 97.25 L 664.074219 0.851562 L 480.710938 253.230469 L 184.023438 349.628906 L 184.023438 661.589844 L 0.65625 913.96875 L 184.023438 1166.34375 L 184.023438 1478.300781 L 480.710938 1574.699219 L 664.074219 1827.082031 Z M 881.355469 669.589844 L 817.0625 648.699219 L 817.0625 471.699219 L 921.09375 614.898438 Z M 1040.160156 669.589844 L 1000.421875 614.898438 L 1104.460938 471.699219 L 1104.460938 648.699219 Z M 1168.640625 627.851562 L 1168.640625 383.371094 L 1257.449219 261.128906 L 1401.148438 307.820312 L 1489.960938 430.058594 L 1401.148438 552.300781 Z M 1673.320312 573.25 L 1609.019531 484.761719 L 1504.988281 518.558594 L 1569.289062 430.058594 L 1504.988281 341.558594 L 1673.320312 396.261719 Z M 752.882812 695.328125 L 752.882812 762.929688 L 688.585938 783.828125 L 584.550781 640.628906 Z M 495.738281 913.96875 L 664.070312 859.273438 L 703.808594 913.96875 L 664.070312 968.660156 Z M 391.898438 947.707031 L 624.40625 1023.253906 L 480.710938 1221.039062 L 337.007812 1267.730469 L 248.199219 1145.492188 L 248.199219 994.394531 Z M 1440.808594 1221.039062 L 1297.109375 1023.253906 L 1529.621094 947.707031 L 1673.320312 994.394531 L 1673.320312 1145.492188 L 1584.511719 1267.730469 Z M 752.882812 1064.996094 L 752.882812 1132.605469 L 584.550781 1187.300781 L 688.585938 1044.105469 Z M 312.496094 1343.175781 L 416.53125 1309.371094 L 352.234375 1397.867188 L 416.53125 1486.367188 L 248.199219 1431.671875 L 248.199219 1254.679688 Z M 431.5625 1397.867188 L 520.371094 1275.632812 L 752.882812 1200.085938 L 752.882812 1444.5625 L 664.074219 1566.796875 L 520.375 1520.105469 Z M 817.0625 1179.234375 L 881.355469 1158.34375 L 921.09375 1213.035156 L 817.0625 1356.230469 Z M 1040.160156 1158.34375 L 1104.460938 1179.234375 L 1104.460938 1356.230469 L 1000.421875 1213.035156 Z M 1168.640625 1444.5625 L 1168.640625 1200.085938 L 1401.148438 1275.632812 L 1489.960938 1397.867188 L 1401.148438 1520.105469 L 1257.449219 1566.796875 Z M 1168.640625 1064.996094 L 1232.929688 1044.105469 L 1336.96875 1187.300781 L 1168.640625 1132.605469 Z M 1569.289062 1397.867188 L 1504.988281 1309.371094 L 1609.019531 1343.175781 L 1673.320312 1254.679688 L 1673.320312 1431.671875 L 1504.988281 1486.367188 Z M 1257.449219 968.660156 L 1217.710938 913.96875 L 1257.449219 859.273438 L 1425.78125 913.96875 Z M 1168.640625 762.929688 L 1168.640625 695.328125 L 1336.96875 640.628906 L 1232.929688 783.828125 Z M 1297.109375 804.679688 L 1440.808594 606.890625 L 1584.511719 560.199219 L 1673.320312 682.441406 L 1673.320312 833.535156 L 1529.621094 880.222656 Z M 312.496094 484.761719 L 248.199219 573.25 L 248.199219 396.261719 L 416.53125 341.558594 L 352.234375 430.058594 L 416.53125 518.558594 Z M 480.710938 606.890625 L 624.40625 804.679688 L 391.898438 880.222656 L 248.199219 833.535156 L 248.199219 682.441406 L 337.007812 560.199219 Z M 752.882812 383.371094 L 752.882812 627.851562 L 520.371094 552.300781 L 431.5625 430.058594 L 520.375 307.820312 L 664.074219 261.128906 Z M 856.921875 130.988281 L 752.882812 164.800781 L 752.882812 274.179688 L 688.585938 185.691406 L 584.550781 219.488281 L 688.585938 76.300781 Z M 960.761719 560.300781 L 817.0625 362.519531 L 817.0625 211.421875 L 960.761719 164.730469 L 1104.460938 211.421875 L 1104.460938 362.519531 Z M 752.882812 1663.132812 L 856.921875 1696.9375 L 688.585938 1751.632812 L 584.550781 1608.441406 L 688.585938 1642.242188 L 752.882812 1553.746094 Z M 1336.96875 219.488281 L 1232.929688 185.691406 L 1168.640625 274.179688 L 1168.640625 164.800781 L 1064.601562 130.988281 L 1232.929688 76.300781 Z M 184.023438 947.769531 L 184.023438 1057.160156 L 79.984375 913.96875 L 184.023438 770.78125 L 184.023438 880.164062 L 288.054688 913.96875 Z M 1737.5 1057.160156 L 1737.5 947.769531 L 1633.46875 913.96875 L 1737.5 880.164062 L 1737.5 770.78125 L 1841.539062 913.96875 L 1737.5 1057.160156 "/>
</svg>
